<svg width="17" height="16" viewBox="0 0 17 16" fill="none" xmlns="http://www.w3.org/2000/svg">
<g clip-path="url(#clip0_251_133)">
<path d="M7.5293 3.66577C8.0238 3.56749 8.53614 3.61835 9.00195 3.81128C9.46781 4.00424 9.8663 4.33054 10.1465 4.74976C10.4267 5.1691 10.5762 5.66241 10.5762 6.16675C10.5754 6.84279 10.3071 7.49145 9.8291 7.96948C9.35107 8.44751 8.7024 8.71574 8.02637 8.71655C7.52203 8.71655 7.02872 8.56706 6.60938 8.28687C6.19016 8.00668 5.86386 7.60819 5.6709 7.14233C5.47797 6.67652 5.42711 6.16418 5.52539 5.66968C5.62378 5.17503 5.86701 4.72064 6.22363 4.36401C6.58026 4.00739 7.03465 3.76416 7.5293 3.66577ZM7.91895 4.72046C7.67004 4.73894 7.42925 4.82138 7.2207 4.96069C6.98225 5.12002 6.79627 5.34711 6.68652 5.61206C6.57686 5.87695 6.54856 6.16877 6.60449 6.44995C6.66049 6.73108 6.79828 6.98944 7.00098 7.19214C7.20368 7.39484 7.46203 7.53263 7.74316 7.58862C8.02435 7.64455 8.31617 7.61625 8.58105 7.50659C8.84601 7.39684 9.07309 7.21086 9.23242 6.97241C9.39169 6.73399 9.47656 6.45348 9.47656 6.16675C9.47617 5.78231 9.32262 5.41418 9.05078 5.14233C8.77894 4.87049 8.41081 4.71695 8.02637 4.71655L7.91895 4.72046Z" fill="#6B7280" stroke="#6B7280" stroke-width="0.1"/>
<path d="M8.02637 0.567139C9.51158 0.567139 10.9361 1.15658 11.9863 2.20679C13.0365 3.25699 13.626 4.68154 13.626 6.16675L13.6221 6.39331C13.5771 7.52056 13.1889 8.60892 12.5078 9.51245V9.5144L12.498 9.5271L12.4971 9.52808L12.4961 9.53003C12.495 9.53147 12.4931 9.53338 12.4912 9.53589C12.4871 9.54134 12.4808 9.54894 12.4736 9.55835C12.4592 9.57727 12.4401 9.6033 12.4199 9.62964C12.381 9.6804 12.3359 9.73854 12.3223 9.75464L8.10254 14.7312L8.02637 14.821L7.9502 14.7312L3.73242 9.75659L3.72949 9.75366C3.67063 9.67864 3.61233 9.60307 3.55469 9.5271C2.82138 8.56042 2.42542 7.38009 2.42676 6.16675L2.43359 5.8894C2.50218 4.50517 3.08176 3.19143 4.06641 2.20679C5.11661 1.15658 6.54116 0.56714 8.02637 0.567139ZM8.02637 1.76636C6.85942 1.76636 5.7402 2.23026 4.91504 3.05542C4.08988 3.88058 3.62598 4.9998 3.62598 6.16675C3.62477 7.11897 3.9367 8.04521 4.5127 8.80347V8.80444L4.51367 8.80542C4.5145 8.80651 4.51604 8.80827 4.51758 8.8103C4.52081 8.81456 4.5256 8.8214 4.53125 8.82886C4.54252 8.84373 4.55819 8.86345 4.57422 8.88452C4.60593 8.9262 4.63907 8.97039 4.65234 8.98706L8.02539 12.9666L11.4053 8.9812C11.417 8.9663 11.4487 8.92419 11.4795 8.88354C11.4955 8.86249 11.5111 8.84192 11.5225 8.8269C11.528 8.81957 11.5329 8.81362 11.5361 8.80933C11.5377 8.80726 11.5391 8.80567 11.54 8.80444L11.541 8.80249C12.1164 8.04449 12.4279 7.11839 12.4268 6.16675C12.4268 4.9998 11.9629 3.88058 11.1377 3.05542C10.3125 2.23026 9.19332 1.76636 8.02637 1.76636Z" fill="#6B7280" stroke="#6B7280" stroke-width="0.2"/>
</g>
<defs>
<clipPath id="clip0_251_133">
<rect width="16" height="16" fill="white" transform="translate(0.0263672)"/>
</clipPath>
</defs>
</svg>
