<svg width="20" height="20" viewBox="0 0 20 20" fill="none" xmlns="http://www.w3.org/2000/svg">
<mask id="path-1-outside-1_289_106" maskUnits="userSpaceOnUse" x="-0.375" y="2.75073" width="20" height="15" fill="black">
<rect fill="white" x="-0.375" y="2.75073" width="20" height="15"/>
<path d="M19.1252 11.7501C19.0596 11.7993 18.9849 11.8351 18.9053 11.8555C18.8258 11.8759 18.7431 11.8804 18.6618 11.8688C18.5806 11.8572 18.5024 11.8297 18.4318 11.7879C18.3612 11.746 18.2995 11.6907 18.2502 11.6251C17.8735 11.1187 17.3832 10.7079 16.8187 10.4256C16.2542 10.1434 15.6313 9.99761 15.0002 10.0001C14.8773 10 14.7572 9.9638 14.6547 9.89585C14.5523 9.8279 14.4722 9.73126 14.4245 9.61803C14.392 9.54113 14.3753 9.45852 14.3753 9.37506C14.3753 9.2916 14.392 9.20898 14.4245 9.13209C14.4722 9.01885 14.5523 8.92222 14.6547 8.85427C14.7572 8.78632 14.8773 8.75007 15.0002 8.75006C15.3509 8.75003 15.6946 8.65165 15.9921 8.46611C16.2897 8.28056 16.5293 8.01528 16.6836 7.7004C16.838 7.38552 16.901 7.03366 16.8654 6.68479C16.8298 6.33592 16.6971 6.00402 16.4823 5.72679C16.2676 5.44957 15.9794 5.23812 15.6505 5.11648C15.3216 4.99483 14.9651 4.96787 14.6217 5.03864C14.2782 5.10941 13.9615 5.27509 13.7074 5.51685C13.4534 5.75861 13.2723 6.06676 13.1846 6.40631C13.1641 6.48582 13.1281 6.56051 13.0787 6.62612C13.0293 6.69172 12.9675 6.74696 12.8968 6.78867C12.8261 6.83039 12.7478 6.85776 12.6665 6.86923C12.5852 6.8807 12.5024 6.87605 12.4229 6.85553C12.3434 6.83501 12.2687 6.79903 12.2031 6.74964C12.1375 6.70026 12.0822 6.63844 12.0405 6.5677C11.9988 6.49697 11.9714 6.41872 11.96 6.3374C11.9485 6.25609 11.9532 6.17332 11.9737 6.09381C12.0954 5.62296 12.3253 5.18701 12.6451 4.82065C12.9649 4.45428 13.3658 4.16761 13.8159 3.98346C14.266 3.7993 14.7529 3.72273 15.2378 3.75985C15.7227 3.79696 16.1922 3.94674 16.609 4.19725C17.0259 4.44777 17.3785 4.79211 17.6388 5.20288C17.8991 5.61366 18.06 6.07952 18.1086 6.5634C18.1572 7.04728 18.0922 7.53583 17.9188 7.99017C17.7454 8.44452 17.4683 8.85211 17.1096 9.18053C17.9595 9.54849 18.6982 10.1324 19.2526 10.8743C19.3018 10.9401 19.3376 11.015 19.3578 11.0947C19.3781 11.1743 19.3824 11.2572 19.3706 11.3386C19.3588 11.4199 19.331 11.4982 19.2889 11.5688C19.2468 11.6394 19.1912 11.701 19.1252 11.7501ZM14.9159 16.5626C14.9611 16.6337 14.9914 16.7132 15.0051 16.7964C15.0188 16.8796 15.0155 16.9647 14.9955 17.0465C14.9754 17.1284 14.939 17.2054 14.8884 17.2728C14.8379 17.3403 14.7742 17.3968 14.7012 17.439C14.6282 17.4811 14.5475 17.5081 14.4638 17.5183C14.3801 17.5285 14.2952 17.5216 14.2143 17.4981C14.1333 17.4746 14.058 17.435 13.9927 17.3816C13.9275 17.3283 13.8737 17.2622 13.8346 17.1876C13.4409 16.5209 12.8802 15.9684 12.2078 15.5846C11.5353 15.2008 10.7745 14.9989 10.0002 14.9989C9.22599 14.9989 8.46513 15.2008 7.79272 15.5846C7.1203 15.9684 6.55957 16.5209 6.16586 17.1876C6.12679 17.2622 6.07301 17.3283 6.00776 17.3816C5.94252 17.435 5.86715 17.4746 5.7862 17.4981C5.70524 17.5216 5.62037 17.5285 5.53669 17.5183C5.45301 17.5081 5.37226 17.4811 5.29928 17.439C5.2263 17.3968 5.16261 17.3403 5.11204 17.2728C5.06147 17.2054 5.02506 17.1284 5.005 17.0465C4.98495 16.9647 4.98166 16.8796 4.99534 16.7964C5.00902 16.7132 5.03939 16.6337 5.08461 16.5626C5.69055 15.5214 6.61445 14.7021 7.72055 14.2251C7.09815 13.7485 6.64073 13.0889 6.41258 12.339C6.18443 11.589 6.19703 10.7865 6.44861 10.044C6.70018 9.30163 7.17808 8.65672 7.81513 8.19996C8.45218 7.7432 9.21636 7.49755 10.0002 7.49755C10.7841 7.49755 11.5483 7.7432 12.1853 8.19996C12.8224 8.65672 13.3003 9.30163 13.5519 10.044C13.8034 10.7865 13.816 11.589 13.5879 12.339C13.3597 13.0889 12.9023 13.7485 12.2799 14.2251C13.386 14.7021 14.3099 15.5214 14.9159 16.5626ZM10.0002 13.7501C10.4947 13.7501 10.978 13.6034 11.3892 13.3287C11.8003 13.054 12.1207 12.6636 12.3099 12.2068C12.4992 11.75 12.5487 11.2473 12.4522 10.7623C12.3557 10.2774 12.1176 9.83192 11.768 9.48229C11.4184 9.13266 10.9729 8.89456 10.488 8.79809C10.003 8.70163 9.50034 8.75114 9.04353 8.94036C8.58671 9.12958 8.19626 9.45001 7.92156 9.86113C7.64686 10.2723 7.50024 10.7556 7.50024 11.2501C7.50024 11.9131 7.76363 12.549 8.23247 13.0178C8.70131 13.4867 9.33719 13.7501 10.0002 13.7501ZM5.62523 9.37506C5.62523 9.2093 5.55939 9.05033 5.44218 8.93312C5.32497 8.81591 5.166 8.75006 5.00024 8.75006C4.64955 8.75003 4.30591 8.65165 4.00834 8.46611C3.71076 8.28056 3.47119 8.01528 3.31682 7.7004C3.16246 7.38552 3.09949 7.03366 3.13508 6.68479C3.17066 6.33592 3.30337 6.00402 3.51813 5.72679C3.73289 5.44957 4.02109 5.23812 4.35 5.11648C4.67891 4.99483 5.03534 4.96787 5.3788 5.03864C5.72227 5.10941 6.039 5.27509 6.29303 5.51685C6.54705 5.75861 6.72819 6.06676 6.81586 6.40631C6.8573 6.56689 6.96083 6.70443 7.10368 6.78867C7.24653 6.87292 7.417 6.89697 7.57758 6.85553C7.73816 6.81409 7.8757 6.71055 7.95995 6.5677C8.04419 6.42485 8.06824 6.25439 8.0268 6.09381C7.90511 5.62296 7.67522 5.18701 7.3554 4.82065C7.03558 4.45428 6.63467 4.16761 6.18457 3.98346C5.73447 3.7993 5.2476 3.72273 4.7627 3.75985C4.2778 3.79696 3.80826 3.94674 3.39143 4.19725C2.9746 4.44777 2.62199 4.79211 2.36166 5.20288C2.10133 5.61366 1.94046 6.07952 1.89185 6.5634C1.84324 7.04728 1.90824 7.53583 2.08168 7.99017C2.25511 8.44452 2.53218 8.85211 2.89086 9.18053C2.04186 9.54884 1.30392 10.1327 0.750235 10.8743C0.700938 10.9399 0.665056 11.0147 0.644639 11.0942C0.624222 11.1737 0.619669 11.2565 0.63124 11.3378C0.642811 11.4191 0.670279 11.4973 0.712077 11.568C0.753875 11.6386 0.809183 11.7004 0.874844 11.7497C0.940505 11.799 1.01523 11.8348 1.09476 11.8553C1.17429 11.8757 1.25706 11.8802 1.33835 11.8687C1.41963 11.8571 1.49785 11.8296 1.56852 11.7878C1.63919 11.746 1.70094 11.6907 1.75023 11.6251C2.12694 11.1187 2.61728 10.7079 3.18176 10.4256C3.74625 10.1434 4.36912 9.99761 5.00024 10.0001C5.166 10.0001 5.32497 9.93421 5.44218 9.817C5.55939 9.69979 5.62523 9.54082 5.62523 9.37506Z"/>
</mask>
<path d="M19.1252 11.7501C19.0596 11.7993 18.9849 11.8351 18.9053 11.8555C18.8258 11.8759 18.7431 11.8804 18.6618 11.8688C18.5806 11.8572 18.5024 11.8297 18.4318 11.7879C18.3612 11.746 18.2995 11.6907 18.2502 11.6251C17.8735 11.1187 17.3832 10.7079 16.8187 10.4256C16.2542 10.1434 15.6313 9.99761 15.0002 10.0001C14.8773 10 14.7572 9.9638 14.6547 9.89585C14.5523 9.8279 14.4722 9.73126 14.4245 9.61803C14.392 9.54113 14.3753 9.45852 14.3753 9.37506C14.3753 9.2916 14.392 9.20898 14.4245 9.13209C14.4722 9.01885 14.5523 8.92222 14.6547 8.85427C14.7572 8.78632 14.8773 8.75007 15.0002 8.75006C15.3509 8.75003 15.6946 8.65165 15.9921 8.46611C16.2897 8.28056 16.5293 8.01528 16.6836 7.7004C16.838 7.38552 16.901 7.03366 16.8654 6.68479C16.8298 6.33592 16.6971 6.00402 16.4823 5.72679C16.2676 5.44957 15.9794 5.23812 15.6505 5.11648C15.3216 4.99483 14.9651 4.96787 14.6217 5.03864C14.2782 5.10941 13.9615 5.27509 13.7074 5.51685C13.4534 5.75861 13.2723 6.06676 13.1846 6.40631C13.1641 6.48582 13.1281 6.56051 13.0787 6.62612C13.0293 6.69172 12.9675 6.74696 12.8968 6.78867C12.8261 6.83039 12.7478 6.85776 12.6665 6.86923C12.5852 6.8807 12.5024 6.87605 12.4229 6.85553C12.3434 6.83501 12.2687 6.79903 12.2031 6.74964C12.1375 6.70026 12.0822 6.63844 12.0405 6.5677C11.9988 6.49697 11.9714 6.41872 11.96 6.3374C11.9485 6.25609 11.9532 6.17332 11.9737 6.09381C12.0954 5.62296 12.3253 5.18701 12.6451 4.82065C12.9649 4.45428 13.3658 4.16761 13.8159 3.98346C14.266 3.7993 14.7529 3.72273 15.2378 3.75985C15.7227 3.79696 16.1922 3.94674 16.609 4.19725C17.0259 4.44777 17.3785 4.79211 17.6388 5.20288C17.8991 5.61366 18.06 6.07952 18.1086 6.5634C18.1572 7.04728 18.0922 7.53583 17.9188 7.99017C17.7454 8.44452 17.4683 8.85211 17.1096 9.18053C17.9595 9.54849 18.6982 10.1324 19.2526 10.8743C19.3018 10.9401 19.3376 11.015 19.3578 11.0947C19.3781 11.1743 19.3824 11.2572 19.3706 11.3386C19.3588 11.4199 19.331 11.4982 19.2889 11.5688C19.2468 11.6394 19.1912 11.701 19.1252 11.7501ZM14.9159 16.5626C14.9611 16.6337 14.9914 16.7132 15.0051 16.7964C15.0188 16.8796 15.0155 16.9647 14.9955 17.0465C14.9754 17.1284 14.939 17.2054 14.8884 17.2728C14.8379 17.3403 14.7742 17.3968 14.7012 17.439C14.6282 17.4811 14.5475 17.5081 14.4638 17.5183C14.3801 17.5285 14.2952 17.5216 14.2143 17.4981C14.1333 17.4746 14.058 17.435 13.9927 17.3816C13.9275 17.3283 13.8737 17.2622 13.8346 17.1876C13.4409 16.5209 12.8802 15.9684 12.2078 15.5846C11.5353 15.2008 10.7745 14.9989 10.0002 14.9989C9.22599 14.9989 8.46513 15.2008 7.79272 15.5846C7.1203 15.9684 6.55957 16.5209 6.16586 17.1876C6.12679 17.2622 6.07301 17.3283 6.00776 17.3816C5.94252 17.435 5.86715 17.4746 5.7862 17.4981C5.70524 17.5216 5.62037 17.5285 5.53669 17.5183C5.45301 17.5081 5.37226 17.4811 5.29928 17.439C5.2263 17.3968 5.16261 17.3403 5.11204 17.2728C5.06147 17.2054 5.02506 17.1284 5.005 17.0465C4.98495 16.9647 4.98166 16.8796 4.99534 16.7964C5.00902 16.7132 5.03939 16.6337 5.08461 16.5626C5.69055 15.5214 6.61445 14.7021 7.72055 14.2251C7.09815 13.7485 6.64073 13.0889 6.41258 12.339C6.18443 11.589 6.19703 10.7865 6.44861 10.044C6.70018 9.30163 7.17808 8.65672 7.81513 8.19996C8.45218 7.7432 9.21636 7.49755 10.0002 7.49755C10.7841 7.49755 11.5483 7.7432 12.1853 8.19996C12.8224 8.65672 13.3003 9.30163 13.5519 10.044C13.8034 10.7865 13.816 11.589 13.5879 12.339C13.3597 13.0889 12.9023 13.7485 12.2799 14.2251C13.386 14.7021 14.3099 15.5214 14.9159 16.5626ZM10.0002 13.7501C10.4947 13.7501 10.978 13.6034 11.3892 13.3287C11.8003 13.054 12.1207 12.6636 12.3099 12.2068C12.4992 11.75 12.5487 11.2473 12.4522 10.7623C12.3557 10.2774 12.1176 9.83192 11.768 9.48229C11.4184 9.13266 10.9729 8.89456 10.488 8.79809C10.003 8.70163 9.50034 8.75114 9.04353 8.94036C8.58671 9.12958 8.19626 9.45001 7.92156 9.86113C7.64686 10.2723 7.50024 10.7556 7.50024 11.2501C7.50024 11.9131 7.76363 12.549 8.23247 13.0178C8.70131 13.4867 9.33719 13.7501 10.0002 13.7501ZM5.62523 9.37506C5.62523 9.2093 5.55939 9.05033 5.44218 8.93312C5.32497 8.81591 5.166 8.75006 5.00024 8.75006C4.64955 8.75003 4.30591 8.65165 4.00834 8.46611C3.71076 8.28056 3.47119 8.01528 3.31682 7.7004C3.16246 7.38552 3.09949 7.03366 3.13508 6.68479C3.17066 6.33592 3.30337 6.00402 3.51813 5.72679C3.73289 5.44957 4.02109 5.23812 4.35 5.11648C4.67891 4.99483 5.03534 4.96787 5.3788 5.03864C5.72227 5.10941 6.039 5.27509 6.29303 5.51685C6.54705 5.75861 6.72819 6.06676 6.81586 6.40631C6.8573 6.56689 6.96083 6.70443 7.10368 6.78867C7.24653 6.87292 7.417 6.89697 7.57758 6.85553C7.73816 6.81409 7.8757 6.71055 7.95995 6.5677C8.04419 6.42485 8.06824 6.25439 8.0268 6.09381C7.90511 5.62296 7.67522 5.18701 7.3554 4.82065C7.03558 4.45428 6.63467 4.16761 6.18457 3.98346C5.73447 3.7993 5.2476 3.72273 4.7627 3.75985C4.2778 3.79696 3.80826 3.94674 3.39143 4.19725C2.9746 4.44777 2.62199 4.79211 2.36166 5.20288C2.10133 5.61366 1.94046 6.07952 1.89185 6.5634C1.84324 7.04728 1.90824 7.53583 2.08168 7.99017C2.25511 8.44452 2.53218 8.85211 2.89086 9.18053C2.04186 9.54884 1.30392 10.1327 0.750235 10.8743C0.700938 10.9399 0.665056 11.0147 0.644639 11.0942C0.624222 11.1737 0.619669 11.2565 0.63124 11.3378C0.642811 11.4191 0.670279 11.4973 0.712077 11.568C0.753875 11.6386 0.809183 11.7004 0.874844 11.7497C0.940505 11.799 1.01523 11.8348 1.09476 11.8553C1.17429 11.8757 1.25706 11.8802 1.33835 11.8687C1.41963 11.8571 1.49785 11.8296 1.56852 11.7878C1.63919 11.746 1.70094 11.6907 1.75023 11.6251C2.12694 11.1187 2.61728 10.7079 3.18176 10.4256C3.74625 10.1434 4.36912 9.99761 5.00024 10.0001C5.166 10.0001 5.32497 9.93421 5.44218 9.817C5.55939 9.69979 5.62523 9.54082 5.62523 9.37506Z" fill="#E299B2"/>
<path d="M19.1252 11.7501C19.0596 11.7993 18.9849 11.8351 18.9053 11.8555C18.8258 11.8759 18.7431 11.8804 18.6618 11.8688C18.5806 11.8572 18.5024 11.8297 18.4318 11.7879C18.3612 11.746 18.2995 11.6907 18.2502 11.6251C17.8735 11.1187 17.3832 10.7079 16.8187 10.4256C16.2542 10.1434 15.6313 9.99761 15.0002 10.0001C14.8773 10 14.7572 9.9638 14.6547 9.89585C14.5523 9.8279 14.4722 9.73126 14.4245 9.61803C14.392 9.54113 14.3753 9.45852 14.3753 9.37506C14.3753 9.2916 14.392 9.20898 14.4245 9.13209C14.4722 9.01885 14.5523 8.92222 14.6547 8.85427C14.7572 8.78632 14.8773 8.75007 15.0002 8.75006C15.3509 8.75003 15.6946 8.65165 15.9921 8.46611C16.2897 8.28056 16.5293 8.01528 16.6836 7.7004C16.838 7.38552 16.901 7.03366 16.8654 6.68479C16.8298 6.33592 16.6971 6.00402 16.4823 5.72679C16.2676 5.44957 15.9794 5.23812 15.6505 5.11648C15.3216 4.99483 14.9651 4.96787 14.6217 5.03864C14.2782 5.10941 13.9615 5.27509 13.7074 5.51685C13.4534 5.75861 13.2723 6.06676 13.1846 6.40631C13.1641 6.48582 13.1281 6.56051 13.0787 6.62612C13.0293 6.69172 12.9675 6.74696 12.8968 6.78867C12.8261 6.83039 12.7478 6.85776 12.6665 6.86923C12.5852 6.8807 12.5024 6.87605 12.4229 6.85553C12.3434 6.83501 12.2687 6.79903 12.2031 6.74964C12.1375 6.70026 12.0822 6.63844 12.0405 6.5677C11.9988 6.49697 11.9714 6.41872 11.96 6.3374C11.9485 6.25609 11.9532 6.17332 11.9737 6.09381C12.0954 5.62296 12.3253 5.18701 12.6451 4.82065C12.9649 4.45428 13.3658 4.16761 13.8159 3.98346C14.266 3.7993 14.7529 3.72273 15.2378 3.75985C15.7227 3.79696 16.1922 3.94674 16.609 4.19725C17.0259 4.44777 17.3785 4.79211 17.6388 5.20288C17.8991 5.61366 18.06 6.07952 18.1086 6.5634C18.1572 7.04728 18.0922 7.53583 17.9188 7.99017C17.7454 8.44452 17.4683 8.85211 17.1096 9.18053C17.9595 9.54849 18.6982 10.1324 19.2526 10.8743C19.3018 10.9401 19.3376 11.015 19.3578 11.0947C19.3781 11.1743 19.3824 11.2572 19.3706 11.3386C19.3588 11.4199 19.331 11.4982 19.2889 11.5688C19.2468 11.6394 19.1912 11.701 19.1252 11.7501ZM14.9159 16.5626C14.9611 16.6337 14.9914 16.7132 15.0051 16.7964C15.0188 16.8796 15.0155 16.9647 14.9955 17.0465C14.9754 17.1284 14.939 17.2054 14.8884 17.2728C14.8379 17.3403 14.7742 17.3968 14.7012 17.439C14.6282 17.4811 14.5475 17.5081 14.4638 17.5183C14.3801 17.5285 14.2952 17.5216 14.2143 17.4981C14.1333 17.4746 14.058 17.435 13.9927 17.3816C13.9275 17.3283 13.8737 17.2622 13.8346 17.1876C13.4409 16.5209 12.8802 15.9684 12.2078 15.5846C11.5353 15.2008 10.7745 14.9989 10.0002 14.9989C9.22599 14.9989 8.46513 15.2008 7.79272 15.5846C7.1203 15.9684 6.55957 16.5209 6.16586 17.1876C6.12679 17.2622 6.07301 17.3283 6.00776 17.3816C5.94252 17.435 5.86715 17.4746 5.7862 17.4981C5.70524 17.5216 5.62037 17.5285 5.53669 17.5183C5.45301 17.5081 5.37226 17.4811 5.29928 17.439C5.2263 17.3968 5.16261 17.3403 5.11204 17.2728C5.06147 17.2054 5.02506 17.1284 5.005 17.0465C4.98495 16.9647 4.98166 16.8796 4.99534 16.7964C5.00902 16.7132 5.03939 16.6337 5.08461 16.5626C5.69055 15.5214 6.61445 14.7021 7.72055 14.2251C7.09815 13.7485 6.64073 13.0889 6.41258 12.339C6.18443 11.589 6.19703 10.7865 6.44861 10.044C6.70018 9.30163 7.17808 8.65672 7.81513 8.19996C8.45218 7.7432 9.21636 7.49755 10.0002 7.49755C10.7841 7.49755 11.5483 7.7432 12.1853 8.19996C12.8224 8.65672 13.3003 9.30163 13.5519 10.044C13.8034 10.7865 13.816 11.589 13.5879 12.339C13.3597 13.0889 12.9023 13.7485 12.2799 14.2251C13.386 14.7021 14.3099 15.5214 14.9159 16.5626ZM10.0002 13.7501C10.4947 13.7501 10.978 13.6034 11.3892 13.3287C11.8003 13.054 12.1207 12.6636 12.3099 12.2068C12.4992 11.75 12.5487 11.2473 12.4522 10.7623C12.3557 10.2774 12.1176 9.83192 11.768 9.48229C11.4184 9.13266 10.9729 8.89456 10.488 8.79809C10.003 8.70163 9.50034 8.75114 9.04353 8.94036C8.58671 9.12958 8.19626 9.45001 7.92156 9.86113C7.64686 10.2723 7.50024 10.7556 7.50024 11.2501C7.50024 11.9131 7.76363 12.549 8.23247 13.0178C8.70131 13.4867 9.33719 13.7501 10.0002 13.7501ZM5.62523 9.37506C5.62523 9.2093 5.55939 9.05033 5.44218 8.93312C5.32497 8.81591 5.166 8.75006 5.00024 8.75006C4.64955 8.75003 4.30591 8.65165 4.00834 8.46611C3.71076 8.28056 3.47119 8.01528 3.31682 7.7004C3.16246 7.38552 3.09949 7.03366 3.13508 6.68479C3.17066 6.33592 3.30337 6.00402 3.51813 5.72679C3.73289 5.44957 4.02109 5.23812 4.35 5.11648C4.67891 4.99483 5.03534 4.96787 5.3788 5.03864C5.72227 5.10941 6.039 5.27509 6.29303 5.51685C6.54705 5.75861 6.72819 6.06676 6.81586 6.40631C6.8573 6.56689 6.96083 6.70443 7.10368 6.78867C7.24653 6.87292 7.417 6.89697 7.57758 6.85553C7.73816 6.81409 7.8757 6.71055 7.95995 6.5677C8.04419 6.42485 8.06824 6.25439 8.0268 6.09381C7.90511 5.62296 7.67522 5.18701 7.3554 4.82065C7.03558 4.45428 6.63467 4.16761 6.18457 3.98346C5.73447 3.7993 5.2476 3.72273 4.7627 3.75985C4.2778 3.79696 3.80826 3.94674 3.39143 4.19725C2.9746 4.44777 2.62199 4.79211 2.36166 5.20288C2.10133 5.61366 1.94046 6.07952 1.89185 6.5634C1.84324 7.04728 1.90824 7.53583 2.08168 7.99017C2.25511 8.44452 2.53218 8.85211 2.89086 9.18053C2.04186 9.54884 1.30392 10.1327 0.750235 10.8743C0.700938 10.9399 0.665056 11.0147 0.644639 11.0942C0.624222 11.1737 0.619669 11.2565 0.63124 11.3378C0.642811 11.4191 0.670279 11.4973 0.712077 11.568C0.753875 11.6386 0.809183 11.7004 0.874844 11.7497C0.940505 11.799 1.01523 11.8348 1.09476 11.8553C1.17429 11.8757 1.25706 11.8802 1.33835 11.8687C1.41963 11.8571 1.49785 11.8296 1.56852 11.7878C1.63919 11.746 1.70094 11.6907 1.75023 11.6251C2.12694 11.1187 2.61728 10.7079 3.18176 10.4256C3.74625 10.1434 4.36912 9.99761 5.00024 10.0001C5.166 10.0001 5.32497 9.93421 5.44218 9.817C5.55939 9.69979 5.62523 9.54082 5.62523 9.37506Z" stroke="#E299B2" stroke-width="0.4" mask="url(#path-1-outside-1_289_106)"/>
</svg>
