<svg width="20" height="20" viewBox="0 0 20 20" fill="none" xmlns="http://www.w3.org/2000/svg">
<path d="M1.0625 0.25C0.847012 0.25 0.640349 0.335603 0.487976 0.487976C0.335603 0.640349 0.25 0.847012 0.25 1.0625C0.25 1.27799 0.335603 1.48465 0.487976 1.63702C0.640349 1.7894 0.847012 1.875 1.0625 1.875H1.46225C1.63868 1.87531 1.81021 1.93303 1.95093 2.03945C2.09165 2.14587 2.19391 2.2952 2.24225 2.46487L4.8195 11.4836C4.96527 11.9926 5.27278 12.4402 5.69554 12.7589C6.1183 13.0776 6.63333 13.25 7.16275 13.25H14.5874C15.0746 13.2501 15.5507 13.1041 15.9542 12.831C16.3577 12.5578 16.6701 12.17 16.851 11.7176L19.2463 5.72787C19.3447 5.4814 19.3813 5.21457 19.3528 4.95069C19.3244 4.68681 19.2317 4.43392 19.0829 4.21412C18.9342 3.99433 18.7338 3.81432 18.4994 3.68983C18.265 3.56534 18.0037 3.50017 17.7383 3.5H4.228L3.80387 2.018C3.65848 1.50901 3.35134 1.06118 2.92888 0.742207C2.50642 0.423236 1.9916 0.250462 1.46225 0.25H1.0625ZM6.38275 11.0351L4.69275 5.125H17.7383L15.3414 11.1147C15.281 11.2654 15.1769 11.3945 15.0426 11.4854C14.9082 11.5763 14.7496 11.625 14.5874 11.625H7.16275C6.98632 11.6247 6.81479 11.567 6.67407 11.4606C6.53335 11.3541 6.43109 11.2048 6.38275 11.0351ZM7.5625 19.75C7.8826 19.75 8.19956 19.687 8.49529 19.5645C8.79102 19.442 9.05973 19.2624 9.28607 19.0361C9.51242 18.8097 9.69196 18.541 9.81446 18.2453C9.93695 17.9496 10 17.6326 10 17.3125C10 16.9924 9.93695 16.6754 9.81446 16.3797C9.69196 16.084 9.51242 15.8153 9.28607 15.5889C9.05973 15.3626 8.79102 15.183 8.49529 15.0605C8.19956 14.938 7.8826 14.875 7.5625 14.875C6.91603 14.875 6.29605 15.1318 5.83893 15.5889C5.38181 16.046 5.125 16.666 5.125 17.3125C5.125 17.959 5.38181 18.579 5.83893 19.0361C6.29605 19.4932 6.91603 19.75 7.5625 19.75ZM7.5625 18.125C7.34701 18.125 7.14035 18.0394 6.98798 17.887C6.8356 17.7347 6.75 17.528 6.75 17.3125C6.75 17.097 6.8356 16.8903 6.98798 16.738C7.14035 16.5856 7.34701 16.5 7.5625 16.5C7.77799 16.5 7.98465 16.5856 8.13702 16.738C8.2894 16.8903 8.375 17.097 8.375 17.3125C8.375 17.528 8.2894 17.7347 8.13702 17.887C7.98465 18.0394 7.77799 18.125 7.5625 18.125ZM14.0625 19.75C14.3826 19.75 14.6996 19.687 14.9953 19.5645C15.291 19.442 15.5597 19.2624 15.7861 19.0361C16.0124 18.8097 16.192 18.541 16.3145 18.2453C16.437 17.9496 16.5 17.6326 16.5 17.3125C16.5 16.9924 16.437 16.6754 16.3145 16.3797C16.192 16.084 16.0124 15.8153 15.7861 15.5889C15.5597 15.3626 15.291 15.183 14.9953 15.0605C14.6996 14.938 14.3826 14.875 14.0625 14.875C13.416 14.875 12.796 15.1318 12.3389 15.5889C11.8818 16.046 11.625 16.666 11.625 17.3125C11.625 17.959 11.8818 18.579 12.3389 19.0361C12.796 19.4932 13.416 19.75 14.0625 19.75ZM14.0625 18.125C13.847 18.125 13.6403 18.0394 13.488 17.887C13.3356 17.7347 13.25 17.528 13.25 17.3125C13.25 17.097 13.3356 16.8903 13.488 16.738C13.6403 16.5856 13.847 16.5 14.0625 16.5C14.278 16.5 14.4847 16.5856 14.637 16.738C14.7894 16.8903 14.875 17.097 14.875 17.3125C14.875 17.528 14.7894 17.7347 14.637 17.887C14.4847 18.0394 14.278 18.125 14.0625 18.125Z" fill="#F7D6E0"/>
</svg>
