<svg width="23" height="18" viewBox="0 0 23 18" fill="none" xmlns="http://www.w3.org/2000/svg">
<path d="M3.13937e-09 2.53125C3.13937e-09 1.95938 0.227176 1.41093 0.631551 1.00655C1.03593 0.602176 1.58438 0.375 2.15625 0.375H15.0938C15.6656 0.375 16.2141 0.602176 16.6185 1.00655C17.0228 1.41093 17.25 1.95938 17.25 2.53125V4.6875H18.7163C19.0393 4.68779 19.3582 4.76067 19.6493 4.90075C19.9404 5.04083 20.1963 5.24454 20.3981 5.49681L22.5271 8.15619C22.8334 8.53883 23.0002 9.01441 23 9.50456V12.5938C23 13.1656 22.7728 13.7141 22.3685 14.1184C21.9641 14.5228 21.4156 14.75 20.8438 14.75H20.125C20.125 15.5125 19.8221 16.2438 19.2829 16.7829C18.7438 17.3221 18.0125 17.625 17.25 17.625C16.4875 17.625 15.7562 17.3221 15.2171 16.7829C14.6779 16.2438 14.375 15.5125 14.375 14.75H7.1875C7.18833 15.1332 7.11253 15.5127 6.96458 15.8662C6.81662 16.2197 6.59948 16.5401 6.32593 16.8085C6.05238 17.0768 5.72794 17.2878 5.37168 17.429C5.01542 17.5702 4.63453 17.6387 4.2514 17.6306C3.86827 17.6224 3.49063 17.5378 3.14069 17.3816C2.79075 17.2254 2.47557 17.0008 2.21368 16.721C1.95178 16.4413 1.74846 16.112 1.61566 15.7525C1.48286 15.393 1.42326 15.0106 1.44037 14.6278C1.01926 14.4796 0.654527 14.2043 0.396526 13.84C0.138526 13.4756 -2.40809e-05 13.0402 3.13937e-09 12.5938L3.13937e-09 2.53125ZM1.86013 13.2493C2.1203 12.8241 2.48654 12.4739 2.92291 12.233C3.35927 11.9921 3.85077 11.8688 4.34918 11.8752C4.84758 11.8815 5.33576 12.0174 5.76582 12.2694C6.19588 12.5214 6.55304 12.8808 6.80225 13.3125H14.7602C15.0126 12.8755 15.3755 12.5126 15.8125 12.2602V2.53125C15.8125 2.34063 15.7368 2.15781 15.602 2.02302C15.4672 1.88823 15.2844 1.8125 15.0938 1.8125H2.15625C1.96563 1.8125 1.78281 1.88823 1.64802 2.02302C1.51323 2.15781 1.4375 2.34063 1.4375 2.53125V12.5938C1.43739 12.7321 1.4772 12.8675 1.55217 12.9838C1.62714 13.1001 1.73407 13.1923 1.86013 13.2493ZM17.25 11.875C17.7547 11.875 18.2504 12.0079 18.6875 12.2602C19.1245 12.5125 19.4874 12.8755 19.7397 13.3125H20.8438C21.0344 13.3125 21.2172 13.2368 21.352 13.102C21.4868 12.9672 21.5625 12.7844 21.5625 12.5938V9.50313C21.5622 9.34001 21.5064 9.18185 21.4044 9.05463L19.2769 6.39525C19.2097 6.31107 19.1244 6.24308 19.0273 6.1963C18.9303 6.14952 18.824 6.12515 18.7163 6.125H17.25V11.875ZM4.3125 13.3125C3.93125 13.3125 3.56562 13.464 3.29603 13.7335C3.02645 14.0031 2.875 14.3688 2.875 14.75C2.875 15.1312 3.02645 15.4969 3.29603 15.7665C3.56562 16.036 3.93125 16.1875 4.3125 16.1875C4.69375 16.1875 5.05938 16.036 5.32897 15.7665C5.59855 15.4969 5.75 15.1312 5.75 14.75C5.75 14.3688 5.59855 14.0031 5.32897 13.7335C5.05938 13.464 4.69375 13.3125 4.3125 13.3125ZM17.25 13.3125C16.8688 13.3125 16.5031 13.464 16.2335 13.7335C15.964 14.0031 15.8125 14.3688 15.8125 14.75C15.8125 15.1312 15.964 15.4969 16.2335 15.7665C16.5031 16.036 16.8688 16.1875 17.25 16.1875C17.6312 16.1875 17.9969 16.036 18.2665 15.7665C18.536 15.4969 18.6875 15.1312 18.6875 14.75C18.6875 14.3688 18.536 14.0031 18.2665 13.7335C17.9969 13.464 17.6312 13.3125 17.25 13.3125Z" fill="#F7D6E0"/>
</svg>
