<svg width="24" height="24" viewBox="0 0 24 24" fill="none" xmlns="http://www.w3.org/2000/svg">
<path fill-rule="evenodd" clip-rule="evenodd" d="M2.1409 12.0017C2.1409 9.38698 3.1796 6.87934 5.0285 5.03045C6.87739 3.18156 9.38503 2.14286 11.9998 2.14286C14.6145 2.14286 17.1221 3.18156 18.971 5.03045C20.8199 6.87934 21.8586 9.38698 21.8586 12.0017C21.8586 14.6164 20.8199 17.1241 18.971 18.973C17.1221 20.8219 14.6145 21.8606 11.9998 21.8606C9.38503 21.8606 6.87739 20.8219 5.0285 18.973C3.1796 17.1241 2.1409 14.6164 2.1409 12.0017ZM11.9998 0C10.4237 -2.34855e-08 8.86302 0.310433 7.4069 0.913576C5.95079 1.51672 4.62773 2.40076 3.51327 3.51522C2.39881 4.62968 1.51477 5.95274 0.911623 7.40886C0.30848 8.86497 -0.00195312 10.4256 -0.00195312 12.0017C-0.00195312 13.5778 0.30848 15.1385 0.911623 16.5946C1.51477 18.0507 2.39881 19.3737 3.51327 20.4882C4.62773 21.6027 5.95079 22.4867 7.4069 23.0899C8.86302 23.693 10.4237 24.0034 11.9998 24.0034C15.1828 24.0034 18.2355 22.739 20.4863 20.4882C22.737 18.2374 24.0015 15.1848 24.0015 12.0017C24.0015 8.81866 22.737 5.76598 20.4863 3.51522C18.2355 1.26446 15.1828 4.74312e-08 11.9998 0ZM13.0712 5.14286C13.0712 4.8587 12.9583 4.58617 12.7574 4.38524C12.5564 4.18431 12.2839 4.07143 11.9998 4.07143C11.7156 4.07143 11.4431 4.18431 11.2421 4.38524C11.0412 4.58617 10.9283 4.8587 10.9283 5.14286V6.35829C10.1664 6.37362 9.43654 6.66807 8.87727 7.18579C8.318 7.70351 7.96819 8.40849 7.8942 9.16701C7.82021 9.92552 8.02718 10.6848 8.47585 11.3009C8.92453 11.9169 9.5837 12.3468 10.3283 12.5091L13.0198 13.0989C13.3096 13.1654 13.5651 13.3358 13.7377 13.578C13.9104 13.8202 13.9882 14.1173 13.9565 14.413C13.9248 14.7087 13.7858 14.9826 13.5658 15.1827C13.3458 15.3828 13.06 15.4953 12.7626 15.4989H11.2386C10.9875 15.499 10.7425 15.4215 10.5372 15.2769C10.3319 15.1324 10.1763 14.9279 10.0918 14.6914C10.0485 14.5544 9.97806 14.4274 9.8847 14.3181C9.79134 14.2089 9.67695 14.1195 9.54833 14.0553C9.41972 13.9912 9.27951 13.9535 9.13605 13.9447C8.9926 13.9358 8.84883 13.9559 8.7133 14.0038C8.57777 14.0517 8.45326 14.1263 8.34718 14.2233C8.24109 14.3203 8.1556 14.4376 8.0958 14.5683C8.03599 14.699 8.0031 14.8404 7.99907 14.984C7.99503 15.1277 8.01995 15.2707 8.07233 15.4046C8.28653 16.0091 8.66928 16.5397 9.17536 16.9337C9.68145 17.3277 10.2897 17.5686 10.9283 17.628V18.8571C10.9283 19.1413 11.0412 19.4138 11.2421 19.6148C11.4431 19.8157 11.7156 19.9286 11.9998 19.9286C12.2839 19.9286 12.5564 19.8157 12.7574 19.6148C12.9583 19.4138 13.0712 19.1413 13.0712 18.8571V17.6297C13.8682 17.5541 14.612 17.1963 15.1686 16.6209C15.7253 16.0456 16.0582 15.2903 16.1074 14.4913C16.1566 13.6922 15.9188 12.9018 15.437 12.2625C14.9552 11.6231 14.2609 11.1769 13.4792 11.004L10.786 10.416C10.5509 10.3668 10.3424 10.2319 10.2011 10.0376C10.0598 9.84334 9.9958 9.60347 10.0214 9.3646C10.0471 9.12574 10.1606 8.90492 10.3399 8.74504C10.5192 8.58516 10.7515 8.49762 10.9918 8.49943H12.7609C13.0127 8.49826 13.2586 8.57578 13.4642 8.72115C13.6698 8.86653 13.8249 9.0725 13.9078 9.31029C13.9522 9.44611 14.0233 9.57169 14.1169 9.67962C14.2106 9.78756 14.3249 9.87567 14.4531 9.93877C14.5813 10.0019 14.7208 10.0387 14.8635 10.047C15.0061 10.0554 15.149 10.0352 15.2837 9.98747C15.4184 9.93979 15.5422 9.86564 15.6479 9.76939C15.7535 9.67314 15.8388 9.55673 15.8987 9.42702C15.9587 9.29731 15.9921 9.15691 15.997 9.0141C16.0019 8.87128 15.9781 8.72893 15.9272 8.59543C15.713 7.99089 15.3302 7.46028 14.8242 7.06629C14.3181 6.6723 13.7098 6.43138 13.0712 6.372V5.14286Z" fill="#F7D6E0" stroke="#7D4A58" stroke-width="0.5"/>
</svg>
