<svg width="16" height="16" viewBox="0 0 16 16" fill="none" xmlns="http://www.w3.org/2000/svg">
<path fill-rule="evenodd" clip-rule="evenodd" d="M6.608 2.94646C7.21381 2.34055 8.03549 2.0001 8.89231 2H10.5538C10.6763 2 10.7936 2.04863 10.8802 2.13518C10.9668 2.22174 11.0154 2.33913 11.0154 2.46154V4.67692C11.0154 4.79933 10.9668 4.91672 10.8802 5.00328C10.7936 5.08984 10.6763 5.13846 10.5538 5.13846H8.89231C8.88019 5.13846 8.86818 5.14085 8.85698 5.14549C8.84578 5.15013 8.83561 5.15693 8.82704 5.1655C8.81846 5.17407 8.81167 5.18425 8.80703 5.19544C8.80239 5.20664 8.8 5.21865 8.8 5.23077V6.43077H10.5538C10.624 6.43073 10.6933 6.44669 10.7563 6.47743C10.8194 6.50818 10.8746 6.5529 10.9178 6.60819C10.961 6.66349 10.991 6.72791 11.0056 6.79655C11.0202 6.86518 11.0189 6.93624 11.0018 7.00431L10.448 9.21969C10.423 9.31958 10.3653 9.40824 10.2842 9.47158C10.203 9.53491 10.103 9.56929 10 9.56923H8.8V13.5385C8.8 13.6609 8.75137 13.7783 8.66482 13.8648C8.57826 13.9514 8.46087 14 8.33846 14H6.12308C6.00067 14 5.88328 13.9514 5.79672 13.8648C5.71016 13.7783 5.66154 13.6609 5.66154 13.5385V9.56923H4.46154C4.33913 9.56923 4.22174 9.5206 4.13518 9.43405C4.04863 9.34749 4 9.2301 4 9.10769V6.89231C4 6.8317 4.01194 6.77168 4.03513 6.71568C4.05833 6.65969 4.09232 6.60881 4.13518 6.56595C4.17804 6.52309 4.22892 6.4891 4.28492 6.4659C4.34091 6.44271 4.40093 6.43077 4.46154 6.43077H5.66154V5.23077C5.66164 4.37395 6.00209 3.55227 6.608 2.94646ZM8.89231 2.92308C8.28027 2.92308 7.6933 3.16621 7.26052 3.59898C6.82775 4.03176 6.58462 4.61873 6.58462 5.23077V6.89231C6.58462 7.01472 6.53599 7.13211 6.44943 7.21867C6.36288 7.30522 6.24548 7.35385 6.12308 7.35385H4.92308V8.64615H6.12308C6.24548 8.64615 6.36288 8.69478 6.44943 8.78134C6.53599 8.86789 6.58462 8.98529 6.58462 9.10769V13.0769H7.87692V9.10769C7.87692 8.98529 7.92555 8.86789 8.0121 8.78134C8.09866 8.69478 8.21605 8.64615 8.33846 8.64615H9.63938L9.96246 7.35385H8.33846C8.21605 7.35385 8.09866 7.30522 8.0121 7.21867C7.92555 7.13211 7.87692 7.01472 7.87692 6.89231V5.23077C7.87692 4.96147 7.9839 4.70321 8.17432 4.51278C8.36474 4.32236 8.62301 4.21538 8.89231 4.21538H10.0923V2.92308H8.89231Z" fill="#6B7280"/>
</svg>
