<svg width="16" height="16" viewBox="0 0 16 16" fill="none" xmlns="http://www.w3.org/2000/svg">
<path d="M14.7073 4.83541C14.6278 4.53777 14.4717 4.26616 14.2545 4.04765C14.0373 3.82915 13.7667 3.67137 13.4695 3.59005C12.3782 3.29541 8 3.29541 8 3.29541C8 3.29541 3.62182 3.29541 2.53045 3.59005C2.23331 3.67137 1.96267 3.82915 1.7455 4.04765C1.52833 4.26616 1.37222 4.53777 1.29273 4.83541C1 5.93505 1 8.22723 1 8.22723C1 8.22723 1 10.5194 1.29273 11.619C1.37212 11.9168 1.52819 12.1885 1.74536 12.4072C1.96254 12.6258 2.23323 12.7837 2.53045 12.865C3.62245 13.159 8 13.159 8 13.159C8 13.159 12.3782 13.159 13.4695 12.865C13.7668 12.7837 14.0375 12.6258 14.2546 12.4072C14.4718 12.1885 14.6279 11.9168 14.7073 11.619C15 10.5207 15 8.22723 15 8.22723C15 8.22723 15 5.93505 14.7073 4.83541ZM6.56818 10.3088V6.14632L10.2273 8.22787L6.56818 10.3088Z" stroke="#6B7280" stroke-width="0.954546" stroke-miterlimit="10" stroke-linejoin="round"/>
</svg>
